<svg id="Layer_1" data-name="Layer 1" xmlns="http://www.w3.org/2000/svg" viewBox="0 0 226.52 226.52"><defs><style>.cls-1{fill:#95a5a6;}</style></defs><path class="cls-1" d="M231.24,187.8c-.91-2.83-1.73-5.57-2.64-8.39s-1.73-5.47-2.46-8.11-1.37-4.92-2-7.11H224A111,111,0,0,1,220.84,176c-1.36,4.37-2.73,8.93-4.19,13.49-1.27,4.65-2.65,8.93-4,12.76h23.15c-.54-1.91-1.27-4.19-2.09-6.56S232.06,190.53,231.24,187.8Z" transform="translate(-127.77 -86.48)"/><path class="cls-1" d="M322.84,86.48H159.24a31.46,31.46,0,0,0-31.47,31.46v163.6A31.46,31.46,0,0,0,159.24,313h163.6a31.45,31.45,0,0,0,31.46-31.46V117.94A31.45,31.45,0,0,0,322.84,86.48ZM269.25,243.4H250.2a1.37,1.37,0,0,1-1.46-1l-7.48-21.7H207.35l-6.92,21.42a1.61,1.61,0,0,1-1.74,1.28H181.55c-1,0-1.27-.55-1-1.64l29.36-84.51c.27-.91.55-1.91.91-3a32.19,32.19,0,0,0,.55-5.92.89.89,0,0,1,.73-1h23.61c.73,0,1.09.27,1.18.73l33.27,93.89C270.43,242.94,270.16,243.4,269.25,243.4Zm31.44-1c0,1-.37,1.46-1.19,1.46H281.64a1.28,1.28,0,0,1-1.37-1.46V172.21c0-.91.37-1.28,1.19-1.28h18c.82,0,1.19.45,1.19,1.28Zm-1.91-82.32a10.66,10.66,0,0,1-8.29,3.19,11.25,11.25,0,0,1-8.11-3.19,11.85,11.85,0,0,1-3.11-8.38,10.73,10.73,0,0,1,3.29-8.11,11.65,11.65,0,0,1,8.11-3.19,10.89,10.89,0,0,1,8.29,3.19,12.52,12.52,0,0,1-.18,16.49Z" transform="translate(-127.77 -86.48)"/></svg>