<svg id="Layer_1" data-name="Layer 1" xmlns="http://www.w3.org/2000/svg" viewBox="0 0 42.35 41.91"><defs><style>.cls-1,.cls-2{fill:none;}.cls-1{stroke:#fff;stroke-linecap:round;stroke-linejoin:round;stroke-width:3.42px;}</style></defs><path class="cls-1" d="M32.69,19c.12.23.35.57.57.92a9.24,9.24,0,0,1,.92,5.36c-.12,1.59-.23,5.24-2.85,7.63a10,10,0,0,1-12.77,0,10.27,10.27,0,0,1-2.4-11.74A10.49,10.49,0,0,1,25.06,15a8,8,0,0,1,3.87.92,10.05,10.05,0,0,1,4.45,4.56c.11.34.34.91.45.91.35,0,.35-2.4.35-4.22v-.91s0,4.1-.12,8.66c-.23,8.21-.8,10,.57,11.06,1.6,1.26,5,.34,7.07-1.37,4.9-4.1,4.22-14.36-.34-21a18.15,18.15,0,0,0-7.3-6.27,19.91,19.91,0,0,0-21.77,3.42,20,20,0,0,0-5.82,18c.35,1.71,1.71,8.32,7.87,12.31a19.35,19.35,0,0,0,12.2,2.85A18.64,18.64,0,0,0,32,42.79" transform="translate(-4.45 -3.8)"/><rect class="cls-2" x="0.85" y="0.97" width="40" height="40"/></svg>