<svg id="Layer_1" data-name="Layer 1" xmlns="http://www.w3.org/2000/svg" viewBox="0 0 1919 1087"><defs><style>.cls-1{fill:none;}.cls-2,.cls-4{fill:#4e5356;}.cls-2,.cls-3{opacity:0.18;}</style></defs><rect class="cls-1" x="1" width="1918" height="1087"/><circle class="cls-2" cx="137" cy="952" r="66"/><circle class="cls-2" cx="472" cy="304" r="33"/><circle class="cls-2" cx="1689" cy="166" r="49"/><circle class="cls-2" cx="1741" cy="250" r="29"/><circle class="cls-2" cx="1779" cy="167" r="17"/><path class="cls-2" d="M1529.5,361.5c-137.9-32.17-322.15,103.36-331,238-13.27,202,369.5,384.18,483,298C1792.1,813.53,1733.52,409.1,1529.5,361.5Z" transform="translate(-1 2)"/><g class="cls-3"><path class="cls-4" d="M145,722c72.68-93-18.78-184.85,36.6-302.57C268.16,235.43,588.33,253.92,596,142c2.42-35.28-27.74-62.73-61-93A417.31,417.31,0,0,0,468.49,0H1V802.19C55.71,793.77,112.22,764,145,722Z" transform="translate(-1 2)"/></g></svg>