<?xml version="1.0" encoding="utf-8"?>
<!-- Generator: Adobe Illustrator 24.3.0, SVG Export Plug-In . SVG Version: 6.00 Build 0)  -->
<svg version="1.1" id="Layer_1" xmlns="http://www.w3.org/2000/svg" xmlns:xlink="http://www.w3.org/1999/xlink" x="0px" y="0px"
	 viewBox="0 0 1919 1087" style="enable-background:new 0 0 1919 1087;" xml:space="preserve">
<style type="text/css">
	.st0{fill:none;}
	.st1{opacity:0.18;fill:#515151;enable-background:new    ;}
	.st2{opacity:0.18;}
	.st3{fill:#515151;}
</style>
<rect x="1" class="st0" width="1918" height="1087"/>
<circle class="st1" cx="137" cy="952" r="66"/>
<circle class="st1" cx="472" cy="304" r="33"/>
<circle class="st1" cx="1689" cy="166" r="49"/>
<circle class="st1" cx="1741" cy="250" r="29"/>
<circle class="st1" cx="1779" cy="167" r="17"/>
<path class="st1" d="M1528.5,363.5c-137.9-32.2-322.2,103.4-331,238c-13.3,202,369.5,384.2,483,298
	C1791.1,815.5,1732.5,411.1,1528.5,363.5z"/>
<g class="st2">
	<path class="st3" d="M144,724c72.7-93-18.8-184.8,36.6-302.6C267.2,237.4,587.3,255.9,595,144c2.4-35.3-27.7-62.7-61-93
		c-20.5-18.5-42.8-34.9-66.5-49H0v802.2C54.7,795.8,111.2,766,144,724z"/>
</g>
<g class="st2">
	<path class="st3" d="M88.7,792.2c43.7-101.4-11.3-201.5,22-329.9c52.1-200.6,244.7-180.4,249.4-302.4
		c1.4-38.5-16.7-68.4-36.7-101.4c-12.3-20.2-25.8-38-40-53.4H2v874.6C35,870.5,69,838,88.7,792.2z"/>
</g>
</svg>
