<?xml version="1.0" encoding="utf-8"?>
<!-- Generator: Adobe Illustrator 24.3.0, SVG Export Plug-In . SVG Version: 6.00 Build 0)  -->
<svg version="1.1" id="Layer_1" xmlns="http://www.w3.org/2000/svg" xmlns:xlink="http://www.w3.org/1999/xlink" x="0px" y="0px"
	 viewBox="0 0 1919 1087" style="enable-background:new 0 0 1919 1087;" xml:space="preserve">
<style type="text/css">
	.st0{fill:none;}
	.st1{opacity:0.18;fill:#D6DFFF;enable-background:new    ;}
	.st2{opacity:0.18;}
	.st3{fill:#D6DFFF;}
</style>
<rect x="0" y="0" class="st0" width="1919" height="1087"/>
<circle class="st1" cx="134.6" cy="897.3" r="35.7"/>
<circle class="st1" cx="420.4" cy="313" r="17.9"/>
<circle class="st1" cx="1793.4" cy="148.6" r="25.9"/>
<circle class="st1" cx="1750.5" cy="214.7" r="16"/>
<circle class="st1" cx="1689" cy="145.7" r="11.6"/>
<path class="st1" d="M1252.1,496.6c-39.9,89.3,62.5,249.6,168.5,246.3c112.2-3.5,201.8-189.5,149.9-271.7
	C1515.9,384.9,1296.3,397.5,1252.1,496.6z"/>
<g class="st2">
	<path class="st3" d="M142.5,655.6c71.9-84.5-18.6-167.8,36.2-274.8c85.7-167.1,402.5-150.3,410.1-251.9
		c2.4-32.1-27.4-56.9-60.4-84.5C508.2,27.7,486.1,12.8,462.6,0H0v728.5C54.1,720.8,110,693.8,142.5,655.6z"/>
</g>
<g class="st2">
	<path class="st3" d="M78.7,714.8c39.7-92.1-10.3-183,20-299.6C146,233,320.9,251.4,325.2,140.6c1.3-35-15.2-62.1-33.3-92.1
		C280.7,30.2,268.4,14,255.5,0H0v794.2C30,785.9,60.9,756.3,78.7,714.8z"/>
</g>
</svg>
