<?xml version="1.0" encoding="utf-8"?>
<!-- Generator: Adobe Illustrator 24.3.0, SVG Export Plug-In . SVG Version: 6.00 Build 0)  -->
<svg version="1.1" id="Layer_1" xmlns="http://www.w3.org/2000/svg" xmlns:xlink="http://www.w3.org/1999/xlink" x="0px" y="0px"
	 viewBox="0 0 1918 1087.2" style="enable-background:new 0 0 1918 1087.2;" xml:space="preserve">
<style type="text/css">
	.st0{fill:none;}
	.st1{opacity:0.18;fill:#8C8C8C;enable-background:new    ;}
</style>
<rect class="st0" width="1918" height="1087"/>
<circle class="st1" cx="432.9" cy="701.8" r="36.1"/>
<circle class="st1" cx="314.9" cy="559.3" r="42.7"/>
<circle class="st1" cx="126.5" cy="825.9" r="15.2"/>
<circle class="st1" cx="471.2" cy="763.7" r="21.4"/>
<circle class="st1" cx="499.2" cy="702.6" r="12.5"/>
<circle class="st1" cx="1410.9" cy="505" r="21.4"/>
<circle class="st1" cx="1438.9" cy="443.8" r="12.5"/>
<path class="st1" d="M1917.9,433.4c-27.9-13.8-167.7-78.3-285.9-20.3c-56.8,27.9-47,53.8-111.4,105.4
	c-107.5,86.1-169.9,41.7-291.9,108.3c-11.8,6.4-187.3,105.7-221.2,291.9c-3.7,20.4-18.7,102.7,9.9,168.5h900.6V433.4z"/>
<path class="st1" d="M1920.2,626.1c-26.2-9.7-157.3-55.2-268.1-14.3c-53.3,19.6-44.1,37.9-104.4,74.3
	c-100.8,60.7-159.3,29.4-273.7,76.4c-11.1,4.5-175.6,74.5-207.4,205.8c-3.5,14.4-17.5,72.4,9.3,118.8h844.4V626.1z"/>
</svg>
