<?xml version="1.0" encoding="utf-8"?>
<!-- Generator: Adobe Illustrator 24.3.0, SVG Export Plug-In . SVG Version: 6.00 Build 0)  -->
<svg version="1.1" id="Layer_1" xmlns="http://www.w3.org/2000/svg" xmlns:xlink="http://www.w3.org/1999/xlink" x="0px" y="0px"
	 viewBox="0 0 1918 1087.2" style="enable-background:new 0 0 1918 1087.2;" xml:space="preserve">
<style type="text/css">
	.st0{fill:none;}
	.st1{opacity:0.18;fill:#8C8C8C;enable-background:new    ;}
</style>
<rect class="st0" width="1918" height="1087"/>
<circle class="st1" cx="432.9" cy="701.8" r="36.1"/>
<circle class="st1" cx="314.9" cy="559.3" r="42.7"/>
<circle class="st1" cx="126.5" cy="825.9" r="15.2"/>
<circle class="st1" cx="365" cy="784.1" r="21.4"/>
<circle class="st1" cx="499.2" cy="702.6" r="12.5"/>
<circle class="st1" cx="1363.9" cy="505" r="21.4"/>
<circle class="st1" cx="1391.9" cy="443.8" r="12.5"/>
<path class="st1" d="M1917.5,433.4c-32.8-13.8-197.1-78.3-336-20.3c-66.7,27.9-55.2,53.8-130.9,105.4
	c-126.3,86.1-199.6,41.7-343,108.3c-13.9,6.4-220.1,105.7-259.9,291.9c-4.3,20.4-22,102.7,11.6,168.5h1058.3V433.4H1917.5z"/>
<path class="st1" d="M1920.2,626.1c-30.8-9.7-184.8-55.2-315-14.3c-62.6,19.6-51.8,37.9-122.7,74.3
	c-118.4,60.7-187.2,29.4-321.6,76.4c-13,4.5-206.3,74.5-243.7,205.8c-4.1,14.4-20.6,72.4,10.9,118.8h992.3v-461H1920.2z"/>
</svg>
