<svg id="Layer_1" data-name="Layer 1" xmlns="http://www.w3.org/2000/svg" viewBox="0 0 30 29.26"><defs><style>.cls-1{fill:#fff;fill-rule:evenodd;}</style></defs><path class="cls-1" d="M25.29,10.08a15,15,0,0,0-4.74,29.24c.75.13,1-.33,1-.73s0-1.3,0-2.55c-4.18.91-5.06-2-5.06-2a4,4,0,0,0-1.66-2.19c-1.36-.93.1-.91.1-.91a3.18,3.18,0,0,1,2.3,1.54,3.19,3.19,0,0,0,4.36,1.25,3.3,3.3,0,0,1,.95-2c-3.33-.37-6.83-1.66-6.83-7.41a5.85,5.85,0,0,1,1.54-4,5.45,5.45,0,0,1,.15-4s1.26-.4,4.13,1.54a14.35,14.35,0,0,1,7.51,0c2.86-1.94,4.12-1.54,4.12-1.54a5.34,5.34,0,0,1,.15,4,5.8,5.8,0,0,1,1.54,4c0,5.76-3.51,7-6.85,7.4a3.57,3.57,0,0,1,1,2.78c0,2,0,3.62,0,4.11s.27.87,1,.73a15,15,0,0,0-4.75-29.24Z" transform="translate(-10.29 -10.08)"/></svg>