<svg id="Layer_1" data-name="Layer 1" xmlns="http://www.w3.org/2000/svg" viewBox="0 0 189.19 211.89"><defs><style>.cls-1{fill:#95a5a6;}</style></defs><path class="cls-1" d="M341.79,141a4.58,4.58,0,0,0-3.4-1.49h-180A4.58,4.58,0,0,0,155,141a4.53,4.53,0,0,0-1.19,3.53L170,326.1a4.63,4.63,0,0,0,3.33,4l73.76,21.05a4.31,4.31,0,0,0,1.26.18,4.51,4.51,0,0,0,1.26-.18l73.81-21.05a4.65,4.65,0,0,0,3.32-4L343,144.5A4.56,4.56,0,0,0,341.79,141ZM303,203.59H216.32L218.39,227h82.5l-6.19,69.3-46.33,14-.45-.14-45.79-13.87-2.51-28.23h22.44L223,279l25.61,5.37L273.78,279l2.68-29.65H198l-6.1-68.19H305Z" transform="translate(-153.81 -139.48)"/></svg>