<svg id="Layer_1" data-name="Layer 1" xmlns="http://www.w3.org/2000/svg" viewBox="0 0 128.65 128.65"><defs><style>.cls-1{fill:#95a5a6;}</style></defs><path class="cls-1" d="M352.84,229.48H240.52a8.17,8.17,0,0,0-8.17,8.17V350a8.17,8.17,0,0,0,8.17,8.17H352.83A8.17,8.17,0,0,0,361,350V237.65A8.17,8.17,0,0,0,352.84,229.48Zm-50,98.58c0,12.24-7.18,17.82-17.66,17.82-9.48,0-16.31-6.36-19.1-12.25l9.63-5.83c1.86,3.29,4.68,5.83,8.75,5.83,3.89,0,6.13-1.52,6.13-7.44V287.68H302.8Zm26.57,17.82c-10.85,0-17-5.47-20.44-12.25l9.19-6.13c2.5,4.09,5.22,8,11,8,4.85,0,7.38-2.41,7.38-5.76,0-4-2.63-5.42-7.95-7.76l-2.92-1.25c-8.44-3.59-14.05-8.09-14.05-17.62,0-8.76,6.69-15.43,17.12-15.43,7.43,0,12.77,2.58,16.62,9.35l-9.09,5.86c-2-3.61-4.16-5-7.53-5s-5.59,2.18-5.59,5c0,3.5,2.17,4.91,7.18,7.09l2.92,1.26c9.95,4.25,15.55,8.59,15.55,18.35C348.75,340.11,340.48,345.88,329.37,345.88Z" transform="translate(-232.35 -229.48)"/></svg>