<svg id="Layer_1" data-name="Layer 1" xmlns="http://www.w3.org/2000/svg" viewBox="0 0 386.4 289.57"><defs><style>.cls-1{fill:#95a5a6;}</style></defs><path class="cls-1" d="M389.12,271.94a79.33,79.33,0,0,0-35,8.15c-3.6-7.15-7.22-13.45-7.83-18.14-.71-5.46-1.53-8.73-.68-15.24s4.62-15.72,4.58-16.41-.84-4-8.64-4.06-14.45,1.49-15.24,3.56a75.75,75.75,0,0,0-3.22,11.51c-1.37,7.06-15.55,32.26-23.6,45.43-2.64-5.14-4.88-9.68-5.35-13.25-.71-5.47-1.53-8.74-.68-15.24s4.63-15.73,4.58-16.42-.84-4-8.64-4.06-14.45,1.5-15.24,3.56-1.62,6.86-3.22,11.52-20.46,46.67-25.39,57.56c-2.51,5.54-4.7,10-6.25,13v0L239,324c-1.32,2.59-2.11,4-2.11,4a0,0,0,0,1,0,0c-1.05,1.91-2.18,3.68-2.74,3.68-.39,0-1.18-5.06.17-12,2.81-14.58,9.56-37.31,9.48-38.08,0-.41,1.25-4.37-4.4-6.43-5.49-2-7.46,1.34-8,1.35s-.85,1.19-.85,1.19,6.12-25.56-11.68-25.56c-11.13,0-26.55,12.18-34.16,23.21-4.8,2.61-15.06,8.22-25.93,14.19l-12.5,6.88c-.28-.3-.55-.61-.84-.91-21.59-23-61.51-39.33-59.8-70.29.61-11.26,4.53-40.9,76.68-76.86C221.52,119,268.85,127.07,277,145c11.68,25.66-25.3,73.36-86.67,80.24-23.39,2.62-35.7-6.44-38.76-9.81-3.23-3.56-3.71-3.72-4.92-3.05-2,1.08-.72,4.22,0,6.09,1.84,4.77,9.36,13.23,22.19,17.43,11.27,3.71,38.74,5.74,71.94-7.1C278,214.44,307,174.43,298.51,141c-8.69-34-65.09-45.21-118.49-26.24-31.74,11.22-66.15,28.94-90.87,52.08C59.75,194.31,55,218.26,57,228.27c6.86,35.53,55.85,58.68,75.47,75.84l-2.71,1.5c-9.84,4.86-47.18,24.4-56.53,45.06-10.6,23.42,1.7,40.22,9.81,42.49,25.2,7,51.06-5.6,64.94-26.32s12.2-47.7,5.82-60c-.08-.14-.16-.3-.24-.45,2.54-1.5,5.12-3,7.7-4.54,5-2.93,9.92-5.69,14.17-8-2.38,6.54-4.14,14.37-5,25.7-1,13.27,4.41,30.46,11.55,37.23,3.14,3,6.91,3,9.31,3,8.3,0,12.08-6.89,16.26-15.06,5.1-10,9.65-21.67,9.65-21.67s-5.69,31.49,9.82,31.49c5.66,0,11.34-7.33,13.87-11.06,0,.05,0,.06,0,.06l.44-.72c.57-.91.91-1.47.91-1.47a1.47,1.47,0,0,0,0-.16c2.27-3.95,7.31-12.94,14.86-27.77,9.77-19.17,19.13-43.18,19.13-43.18A128.53,128.53,0,0,0,280,285.84c1.67,5.7,5.25,12,8.05,18.08-2.27,3.14-3.65,4.94-3.65,4.94l0,.1c-1.81,2.4-3.84,5-6,7.52-7.7,9.18-16.89,19.66-18.11,22.68-1.45,3.56-1.11,6.19,1.69,8.3,2.05,1.55,5.69,1.77,9.49,1.53a44,44,0,0,0,14.21-3.22,47.57,47.57,0,0,0,12.21-6.43c7.56-5.56,12.11-13.51,11.68-24-.24-5.8-2.09-11.55-4.43-17,.69-1,1.37-2,2.06-3a321.76,321.76,0,0,0,21.17-36.57,129,129,0,0,0,3.72,15.58c1.45,4.91,4.29,10.28,6.86,15.53-11.21,9.1-18.15,19.68-20.57,26.63-4.46,12.84-1,18.65,5.59,20,3,.6,7.17-.75,10.31-2.09a48,48,0,0,0,13.05-6.7c7.56-5.56,14.82-13.34,14.39-23.88a44.57,44.57,0,0,0-3.27-14.12c9.5-4,21.79-6.16,37.45-4.34,33.61,3.93,40.19,24.91,38.94,33.69s-8.31,13.61-10.67,15.06-3.07,2-2.88,3c.29,1.58,1.37,1.52,3.38,1.18,2.77-.47,17.64-7.14,18.29-23.36C443.77,294.35,424.05,271.75,389.12,271.94Zm-259,87.31C119,371.4,103.44,376,96.77,372.12c-7.21-4.17-4.35-22.05,9.31-34.94,8.33-7.84,19.07-15.08,26.21-19.54l6.91-4.14.76-.42h0l1.72-1C146.61,330.37,141.79,346.51,130.11,359.25Zm81.08-55.12c-3.88,9.45-12,33.63-16.93,32.33-4.24-1.11-6.81-19.49-.85-37.59,3-9.1,9.42-20,13.21-24.21,6.07-6.8,12.76-9,14.38-6.27C223.1,271.92,213.62,298.21,211.19,304.13Zm67,32c-1.64.86-3.16,1.4-3.85,1-.51-.31.68-1.44.68-1.44s8.38-9,11.68-13.11c1.92-2.39,4.14-5.22,6.57-8.39,0,.32,0,.62,0,.93C293.29,325.87,282.85,333.17,278.19,336.1Zm51.62-11.77c-1.23-.87-1-3.69,3-12.47a47.14,47.14,0,0,1,11.47-14.81,21.38,21.38,0,0,1,1.16,6.51C345.37,317.16,335.67,322.23,329.81,324.33Z" transform="translate(-56.6 -105.54)"/></svg>